<svg data-v-423bf9ae="" xmlns="http://www.w3.org/2000/svg" viewBox="0 0 240.7959248913371 163" class="iconAbove"><!----><!----><!----><g data-v-423bf9ae="" id="dc671157-a1f6-4c5b-94c5-271b2a91cf32" fill="black" transform="matrix(6.1224488604322,0,0,6.1224488604322,0.0000020318705082900124,98.71428748000815)"><path d="M3.50 0.70L3.50 0.70L4.48 0.70L4.48 0.70L4.48 10.50L4.48 10.50L2.94 10.50L2.94 10.50L1.54 6.12L1.54 10.50L1.54 10.50L0 10.50L0 0.70L0.56 0.70L0.56 0.70L1.54 0.70L1.54 0.70L1.54 0.73L2.94 5.35L2.94 0.70L3.50 0.70L3.50 0.70ZM6.93 0.70L6.93 0.70L9.39 0.70L9.39 1.68L9.39 2.24L6.93 2.24L6.93 4.07L8.89 4.07L8.89 4.35L8.89 5.33L8.89 5.61L6.93 5.61L6.93 8.96L9.39 8.96L9.39 9.52L9.39 10.50L6.93 10.50L5.39 10.50L5.39 9.48L5.39 4.07L6.93 4.07L5.39 1.04L5.39 0.70L6.93 0.70ZM15.43 0.70L15.43 0.70L15.40 0.80L13.93 5.15L15.27 10.14L15.37 10.50L15.01 10.50L13.96 10.50L13.75 10.50L13.69 10.28L12.85 7L12.04 10.28L11.98 10.50L11.76 10.50L10.71 10.50L10.35 10.50L10.44 10.14L11.77 5.15L10.26 0.70L11.94 0.70L12.85 3.57L13.75 0.70L15.43 0.70ZM19.75 0.70L19.75 0.70L21.34 10.50L19.77 10.50L18.80 3.70L18.41 6.90L18.41 6.92L18.80 6.92L18.80 8.46L18.16 8.46L17.84 10.50L16.28 10.50L16.60 8.46L16.25 8.46L16.25 6.92L16.86 6.92L17.85 0.70L19.75 0.70ZM25.23 0.70L25.23 0.70Q25.45 0.70 25.65 0.79Q25.86 0.88 26.00 1.04Q26.15 1.19 26.24 1.40Q26.33 1.61 26.33 1.83L26.33 1.83L26.33 9.39Q26.33 9.86 26.00 10.18Q25.68 10.50 25.23 10.50L25.23 10.50L21.88 10.50L21.88 4.07L23.42 4.07L23.42 8.96L24.79 8.96L24.79 2.25L23.42 2.25L23.42 4.07L21.88 1.02L21.88 0.70L25.23 0.70ZM30.59 0.70L30.59 0.70Q30.81 0.70 31.02 0.79Q31.22 0.88 31.37 1.04Q31.51 1.19 31.61 1.40Q31.70 1.61 31.70 1.83L31.70 1.83L31.70 9.39Q31.70 9.86 31.37 10.18Q31.04 10.50 30.59 10.50L30.59 10.50L27.24 10.50L27.24 4.07L28.78 4.07L28.78 8.96L30.16 8.96L30.16 2.25L28.78 2.25L28.78 4.07L27.24 1.02L27.24 0.70L30.59 0.70ZM34.15 10.50L34.15 10.50L32.61 10.50L32.61 0.70L34.15 0.70L34.15 10.50ZM38.99 1.16L38.99 1.16Q39.33 1.57 39.33 2.07L39.33 2.07L39.33 3.12L39.33 3.40L39.05 3.40L38.07 3.40L37.79 3.40L37.79 3.12L37.79 2.23L36.61 2.23L36.61 3.98L36.61 4.05L37.93 4.05Q38.51 4.05 38.92 4.45Q39.33 4.86 39.33 5.45L39.33 5.45L39.33 6.85L39.33 9.11Q39.33 9.62 38.99 10.02L38.99 10.02Q38.65 10.40 38.15 10.49L38.15 10.49L38.12 10.50L38.11 10.50L36.27 10.50L36.26 10.50L36.23 10.49Q35.73 10.40 35.39 10.02L35.39 10.02Q35.06 9.62 35.06 9.11L35.06 9.11L35.06 8.06L35.06 7.78L35.34 7.78L36.33 7.78L36.61 7.78L36.61 8.06L36.61 8.96L37.79 8.96L37.79 5.60L36.46 5.60Q35.87 5.60 35.46 5.19Q35.06 4.79 35.06 4.20L35.06 4.20L35.06 4.10L35.06 3.98L35.06 2.07Q35.06 1.57 35.39 1.16L35.39 1.16Q35.73 0.78 36.23 0.70L36.23 0.70L36.26 0.70L36.27 0.70L38.11 0.70L38.12 0.70L38.15 0.70Q38.65 0.78 38.99 1.16Z"></path></g><!----><g data-v-423bf9ae="" id="ec5a4652-b0fd-4d21-b758-cbfffae353df" transform="matrix(1.1980670833392577,0,0,1.1980670833392577,60.95804282557588,-14.4637559086718)" stroke="none" fill="black"><path d="M23.52 53.793l-9.111 15.781 9.111 15.781h18.223l9.112-15.781-9.112-15.781zM41.743 46.207l9.112-15.781-9.112-15.781H23.52l-9.111 15.781 9.111 15.781zM76.48 34.704H58.257l-9.112 15.78 9.112 15.782H76.48l9.112-15.782z"></path><path d="M77.753 32.498h-20.77L46.599 50.484l10.385 17.987h20.77l10.385-17.987-10.386-17.986zM76.48 66.266H58.257l-9.112-15.781 9.112-15.781H76.48l9.111 15.781-9.111 15.781zM22.247 51.588L11.862 69.574 22.247 87.56h20.769l10.385-17.986-10.385-17.986H22.247zm19.496 33.767H23.52l-9.111-15.781 9.111-15.781h18.223l9.112 15.781-9.112 15.781zM43.016 48.413l10.385-17.986-10.385-17.988H22.247L11.862 30.426l10.385 17.986h20.769zM23.52 14.645h18.223l9.112 15.781-9.112 15.781H23.52l-9.111-15.781 9.111-15.781z"></path></g><!----></svg>