<?xml version="1.0" encoding="UTF-8"?>
<svg id="katman_1" data-name="katman 1" xmlns="http://www.w3.org/2000/svg" version="1.1" viewBox="0 0 841.89 595.28">
  <defs>
    <style>
      .cls-1 {
        fill: #090b0b;
      }

      .cls-1, .cls-2 {
        stroke-width: 0px;
      }

      .cls-2 {
        fill: #007fff;
      }
    </style>
  </defs>
  <path class="cls-2" d="M149.21,241.35l-65.47-38.05c-1.44-.83-3.29-.34-4.13,1.1-.27.47-.41,1.01-.4,1.55v105.88c0,1.09.6,2.05,1.51,2.6l24.46,14.38c1.44.83,3.29.34,4.13-1.11.26-.45.4-.97.4-1.49v-69.1c.01-.67.56-1.2,1.23-1.19.21,0,.41.06.58.16l37.75,21.62c3.75,2.14,8.35,2.12,12.08-.06l36.84-21.56c.58-.33,1.32-.14,1.65.44.1.18.16.38.16.58v33.82c0,2.1-1.11,4.04-2.9,5.13l-37.93,23.31c-.91.55-1.46,1.54-1.45,2.6v34.07c0,1.09.54,2.05,1.39,2.6l49.71,31.41c3.87,2.44,8.77,2.48,12.68.12l63.18-37.45c3.69-2.19,5.94-6.16,5.92-10.45v-65.29c0-1.67-1.33-3.03-3-3.04-.56,0-1.11.15-1.59.44l-19.99,12.08c-3.61,2.17-5.83,6.06-5.86,10.27v32.8c0,1.07-.58,2.06-1.51,2.6l-37.39,22.05c-3.81,2.23-8.53,2.21-12.32-.06l-20.11-12.08c-1.42-.87-1.87-2.73-1-4.15.22-.37.52-.68.88-.92l36.36-23.98c3.39-2.23,5.44-6.02,5.44-10.09v-96.94c-.01-1.67-1.37-3.01-3.04-3-.52,0-1.04.14-1.49.4l-64.63,37.99c-3.75,2.18-8.39,2.18-12.14,0Z"/>
  <path class="cls-2" d="M290.61,208.91v20.66c0,4.17-2.14,8.06-5.68,10.27l-19.93,12.38c-1.42.87-3.28.42-4.15-1.01-.29-.48-.44-1.03-.44-1.59v-21.62c0-4.31,2.31-8.29,6.04-10.45l19.63-11.23c1.44-.83,3.29-.34,4.13,1.11.26.45.4.97.4,1.49Z"/>
  <path class="cls-1" d="M383.51,336.6v-109.93h27.18l45.66,63.42-20.05-.12,45.78-63.3h26.82v109.93h-29.84v-30.32c0-9,.18-17.27.6-24.76.42-7.67,1.27-15.4,2.54-23.13l3.14,9.72-34.07,43.97h-10.39l-33.95-44.39,3.5-9.3c1.21,7.55,2.05,15.1,2.48,22.65.42,7.49.6,15.95.6,25.25v30.32h-30.02ZM594.19,337.57c-10.69,0-20.17-2.11-28.39-6.28-7.9-3.92-14.55-9.97-19.21-17.46-4.54-7.65-6.87-16.41-6.7-25.31v-61.85h31.41v60.94c0,4.59.97,8.64,2.96,12.08,1.99,3.44,4.71,6.1,8.15,8.03,3.63,1.91,7.68,2.87,11.78,2.78,4.59,0,8.7-.91,12.26-2.78,3.62-1.93,6.46-4.59,8.46-8.03,2.11-3.44,3.14-7.49,3.14-12.08v-60.94h30.5v61.85c.28,18.06-9.82,34.69-25.97,42.76-8.03,4.17-17.52,6.28-28.39,6.28ZM681.23,336.6v-26.09h25.31v-57.74h-25.31v-26.09h81.54v26.09h-25.19v57.74h25.13v26.09h-81.54.06Z"/>
</svg>