<svg xmlns="http://www.w3.org/2000/svg" version="1.1" xmlns:xlink="http://www.w3.org/1999/xlink"
  xmlns:svgjs="http://svgjs.dev/svgjs" width="1500" height="1500" viewBox="0 0 1500 1500">
  <rect width="1500" height="1500" fill="#ffffff"></rect>
  <g
    transform="matrix(0.6666666666666666,0,0,0.6666666666666666,249.39393939393938,673.8160207326471)">
    <svg viewBox="0 0 396 60" data-background-color="#ffffff" preserveAspectRatio="xMidYMid meet"
      height="227" width="1500" xmlns="http://www.w3.org/2000/svg"
      xmlns:xlink="http://www.w3.org/1999/xlink">
      <g id="tight-bounds" transform="matrix(1,0,0,1,0.2400000000000091,0.2051019121664126)">
        <svg viewBox="0 0 395.52 59.58979617566715" height="59.58979617566715" width="395.52">
          <g>
            <svg viewBox="0 0 395.52 59.58979617566715" height="59.58979617566715" width="395.52">
              <g>
                <svg viewBox="0 0 395.52 59.58979617566715" height="59.58979617566715"
                  width="395.52">
                  <g>
                    <svg viewBox="0 0 395.52 59.58979617566715" height="59.58979617566715"
                      width="395.52">
                      <g id="textblocktransform">
                        <svg viewBox="0 0 395.52 59.58979617566715" height="59.58979617566715"
                          width="395.52" id="textblock">
                          <g>
                            <svg viewBox="0 0 395.52 59.58979617566715" height="59.58979617566715"
                              width="395.52">
                              <g transform="matrix(1,0,0,1,0,0)">
                                <svg width="395.52" viewBox="3.25 -35.01 232.35 35.01"
                                  height="59.58979617566715" data-palette-color="#2a2c35">
                                  <path
                                    d="M31.25-35.01L31.25 0 23.75 0 10.25-23.05 10.25 0 3.25 0 3.25-35.01 10.74-35.01 24.24-11.94 24.24-35.01 31.25-35.01ZM61.74-7.01L61.74 0 37.74 0 37.74-35.01 61.74-35.01 61.74-28 44.75-28 44.75-21 56.25-21 56.25-13.99 44.75-13.99 44.75-7.01 61.74-7.01ZM83.1-17.5L93.84 0 85.35 0 78.61-11.3 71.85 0 63.4 0 74.14-17.5 63.4-35.01 71.85-35.01 78.61-23.71 85.35-35.01 93.84-35.01 83.1-17.5ZM103.68-13.99L117.69-13.99 117.69-21Q117.69-22.44 117.14-23.72 116.59-25 115.64-25.95 114.69-26.9 113.41-27.45 112.13-28 110.69-28L110.69-28Q109.25-28 107.96-27.45 106.68-26.9 105.73-25.95 104.78-25 104.23-23.72 103.68-22.44 103.68-21L103.68-21 103.68-13.99ZM124.7-21L124.7 0 117.69 0 117.69-7.01 103.68-7.01 103.68 0 96.7 0 96.7-21Q96.7-23.9 97.8-26.45 98.89-29 100.79-30.91 102.68-32.81 105.23-33.91 107.78-35.01 110.69-35.01L110.69-35.01Q113.59-35.01 116.14-33.91 118.69-32.81 120.6-30.91 122.5-29 123.6-26.45 124.7-23.9 124.7-21L124.7-21ZM158.83-17.5L158.83-17.5Q158.83-15.09 158.21-12.85 157.58-10.62 156.44-8.68 155.29-6.74 153.7-5.14 152.11-3.54 150.16-2.39 148.21-1.25 145.97-0.62 143.74 0 141.32 0L141.32 0 130.78 0 130.78-35.01 141.32-35.01Q143.74-35.01 145.97-34.39 148.21-33.76 150.16-32.62 152.11-31.47 153.7-29.87 155.29-28.27 156.44-26.33 157.58-24.39 158.21-22.16 158.83-19.92 158.83-17.5ZM151.82-17.5L151.82-17.5Q151.82-19.68 151-21.58 150.19-23.49 148.76-24.91 147.33-26.34 145.41-27.17 143.5-28 141.32-28L141.32-28 137.83-28 137.83-7.01 141.32-7.01Q143.5-7.01 145.41-7.82 147.33-8.64 148.76-10.07 150.19-11.5 151-13.42 151.82-15.33 151.82-17.5ZM191.52-17.5L191.52-17.5Q191.52-15.09 190.89-12.85 190.27-10.62 189.12-8.68 187.98-6.74 186.39-5.14 184.8-3.54 182.85-2.39 180.9-1.25 178.66-0.62 176.43 0 174.01 0L174.01 0 163.46 0 163.46-35.01 174.01-35.01Q176.43-35.01 178.66-34.39 180.9-33.76 182.85-32.62 184.8-31.47 186.39-29.87 187.98-28.27 189.12-26.33 190.27-24.39 190.89-22.16 191.52-19.92 191.52-17.5ZM184.51-17.5L184.51-17.5Q184.51-19.68 183.69-21.58 182.87-23.49 181.45-24.91 180.02-26.34 178.1-27.17 176.18-28 174.01-28L174.01-28 170.52-28 170.52-7.01 174.01-7.01Q176.18-7.01 178.1-7.82 180.02-8.64 181.45-10.07 182.87-11.5 183.69-13.42 184.51-15.33 184.51-17.5ZM203.16-35.01L203.16 0 196.15 0 196.15-35.01 203.16-35.01ZM207.6-24.51L207.6-24.51Q207.6-26.68 208.43-28.59 209.26-30.49 210.69-31.92 212.12-33.35 214.02-34.18 215.92-35.01 218.1-35.01L218.1-35.01 234.16-35.01 234.16-28 218.1-28Q217.37-28 216.73-27.73 216.1-27.47 215.62-26.99 215.14-26.51 214.88-25.88 214.61-25.24 214.61-24.51L214.61-24.51Q214.61-23.78 214.88-23.13 215.14-22.49 215.62-22.01 216.1-21.53 216.73-21.26 217.37-21 218.1-21L218.1-21 225.1-21Q227.28-21 229.19-20.18 231.11-19.36 232.54-17.93 233.97-16.5 234.78-14.59 235.6-12.67 235.6-10.5L235.6-10.5Q235.6-8.33 234.78-6.42 233.97-4.52 232.54-3.09 231.11-1.66 229.19-0.83 227.28 0 225.1 0L225.1 0 209.55 0 209.55-7.01 225.1-7.01Q225.84-7.01 226.47-7.28 227.11-7.54 227.58-8.02 228.06-8.5 228.33-9.13 228.6-9.77 228.6-10.5L228.6-10.5Q228.6-11.23 228.33-11.87 228.06-12.5 227.58-12.98 227.11-13.45 226.47-13.72 225.84-13.99 225.1-13.99L225.1-13.99 218.1-13.99Q215.92-13.99 214.02-14.82 212.12-15.65 210.69-17.08 209.26-18.51 208.43-20.42 207.6-22.34 207.6-24.51Z"
                                    opacity="1" transform="matrix(1,0,0,1,0,0)" fill="#2a2c35"
                                    class="wordmark-text-0" data-fill-palette-color="primary"
                                    id="text-0"></path>
                                </svg>
                              </g>
                            </svg>
                          </g>
                        </svg>
                      </g>
                    </svg>
                  </g>
                </svg>
              </g>
            </svg>
          </g>
          <defs></defs>
        </svg>
        <rect width="395.52" height="59.58979617566715" fill="none" stroke="none"
          visibility="hidden"></rect>
      </g>
    </svg>
  </g>
</svg>